<svg width="30" height="30" viewBox="0 0 30 30" fill="none" xmlns="http://www.w3.org/2000/svg">
<rect x="2.75" y="5.75" width="24.5" height="18.5" rx="1.25" stroke="#272727" stroke-width="1.5"/>
<path d="M6.96643 15.5162C8.04344 13.4207 9.84569 11.5757 12.1118 10.2494C12.5857 9.97217 13.164 9.70567 13.7227 9.84159C14.1578 9.94754 14.4626 10.2847 14.5777 10.6419C14.6922 10.9992 14.6468 11.377 14.5787 11.7424C14.2688 13.3965 13.5077 15.0308 13.7369 16.6935C13.7808 17.0101 13.9347 17.3875 14.3193 17.4462C14.6811 17.5012 14.9824 17.2351 15.2181 17.0056C16.062 16.1839 17.0855 15.4053 18.1468 14.9421C18.5244 14.7775 18.7928 14.9548 18.9286 15.1363C19.4378 15.8176 18.9907 16.7074 19.0356 17.5016C19.0543 17.8244 19.4752 18.0375 19.8557 17.9439C21.0887 17.6408 22.6583 16.9661 23.9664 16.3305" stroke="#3055FE" stroke-width="1.5" stroke-linecap="round"/>
<circle cx="22.6376" cy="10.3624" r="1.61242" stroke="#272727" stroke-width="1.5"/>
<path d="M9.20801 17.6641L11.3395 20.8613C11.4503 21.0275 11.3312 21.25 11.1315 21.25H6.86852C6.66884 21.25 6.54975 21.0275 6.6605 20.8613L8.79199 17.6641C8.89094 17.5157 9.10906 17.5157 9.20801 17.6641Z" stroke="#272727" stroke-width="1.5"/>
</svg>
