<svg width="30" height="30" viewBox="0 0 30 30" fill="none" xmlns="http://www.w3.org/2000/svg">
<g clip-path="url(#clip0_0_612)">
<rect x="2.75" y="5.75" width="24.5" height="18.5" rx="1.25" stroke="#272727" stroke-width="1.5"/>
<path d="M7 18H23" stroke="#272727" stroke-width="1.5" stroke-linecap="round"/>
<path d="M8 21H22" stroke="#272727" stroke-width="1.5" stroke-linecap="round"/>
<path d="M14.0273 9.49219L11.0859 15H10.8516L13.8945 9.31641H14.1016L14.0273 9.49219ZM15.0156 15L13.9688 9.49219L13.957 9.3125H14.1484L15.2383 15H15.0156ZM14.7539 13.0898L14.7266 13.3008H11.9609L11.9883 13.0898H14.7539ZM18.7227 14.207L19.0977 12.0234C19.1393 11.7839 19.1198 11.5807 19.0391 11.4141C18.9609 11.2474 18.8372 11.1211 18.668 11.0352C18.4987 10.9492 18.2969 10.9062 18.0625 10.9062C17.8464 10.9062 17.6328 10.9466 17.4219 11.0273C17.2135 11.1055 17.0312 11.2214 16.875 11.375C16.7188 11.526 16.6146 11.7122 16.5625 11.9336L16.3516 11.9258C16.3906 11.7305 16.4648 11.5573 16.5742 11.4062C16.6862 11.2526 16.8216 11.1237 16.9805 11.0195C17.1393 10.9154 17.3112 10.8359 17.4961 10.7812C17.6836 10.724 17.8724 10.6953 18.0625 10.6953C18.3333 10.6953 18.5703 10.7487 18.7734 10.8555C18.9766 10.9596 19.1263 11.112 19.2227 11.3125C19.3216 11.5104 19.349 11.75 19.3047 12.0312L18.9414 14.1484C18.918 14.2812 18.8997 14.4167 18.8867 14.5547C18.8763 14.6927 18.8828 14.8294 18.9062 14.9648L18.9023 15H18.6641C18.6536 14.8672 18.6549 14.7344 18.668 14.6016C18.681 14.4688 18.6992 14.3372 18.7227 14.207ZM19.082 12.6406L19.0625 12.8555H18.0078C17.8255 12.8581 17.6328 12.8776 17.4297 12.9141C17.2266 12.9479 17.0312 13.0065 16.8438 13.0898C16.6562 13.1706 16.4948 13.2812 16.3594 13.4219C16.2266 13.5599 16.1393 13.7344 16.0977 13.9453C16.0638 14.1328 16.0846 14.2956 16.1602 14.4336C16.2357 14.5716 16.3464 14.6784 16.4922 14.7539C16.638 14.8294 16.7982 14.8685 16.9727 14.8711C17.2513 14.8737 17.5091 14.8255 17.7461 14.7266C17.9857 14.625 18.2005 14.4857 18.3906 14.3086C18.5807 14.1289 18.7422 13.9206 18.875 13.6836L18.9414 13.8867C18.8477 14.069 18.7318 14.2344 18.5938 14.3828C18.4557 14.5312 18.3008 14.6576 18.1289 14.7617C17.957 14.8633 17.7734 14.9414 17.5781 14.9961C17.3854 15.0508 17.1849 15.0781 16.9766 15.0781C16.7526 15.0755 16.5521 15.0286 16.375 14.9375C16.1979 14.8438 16.0638 14.7109 15.9727 14.5391C15.8815 14.3672 15.8542 14.1641 15.8906 13.9297C15.9297 13.6875 16.0208 13.4844 16.1641 13.3203C16.3073 13.1562 16.4805 13.0247 16.6836 12.9258C16.8893 12.8268 17.1068 12.7552 17.3359 12.7109C17.5651 12.6667 17.7839 12.6432 17.9922 12.6406H19.082Z" fill="#3055FE"/>
</g>
<defs>
<clipPath id="clip0_0_612">
<rect width="26" height="20" fill="white" transform="translate(2 5)"/>
</clipPath>
</defs>
</svg>
